<?xml version="1.0" encoding="utf-8"?>
<!-- Generator: Adobe Illustrator 22.1.0, SVG Export Plug-In . SVG Version: 6.00 Build 0)  -->
<svg version="1.1" id="Layer_1" xmlns="http://www.w3.org/2000/svg" xmlns:xlink="http://www.w3.org/1999/xlink" x="0px" y="0px"
	 viewBox="0 0 44 44" style="enable-background:new 0 0 44 44;" xml:space="preserve">
<style type="text/css">
	.st0{fill:#FFFFFF;}
</style>
<path class="st0" d="M25,21.5l9.7-9.7c1-1,1-2.6,0-3.5c-1-1-2.6-1-3.5,0L21.5,18l-9.7-9.7c-1-1-2.6-1-3.5,0c-1,1-1,2.6,0,3.5
	l9.7,9.7l-9.7,9.7c-1,1-1,2.6,0,3.5c0.5,0.5,1.1,0.7,1.8,0.7s1.3-0.2,1.8-0.7l9.7-9.7l9.7,9.7c0.5,0.5,1.1,0.7,1.8,0.7
	s1.3-0.2,1.8-0.7c1-1,1-2.6,0-3.5L25,21.5z"/>
</svg>
