<?xml version="1.0" encoding="utf-8"?>
<!-- Generator: Adobe Illustrator 22.1.0, SVG Export Plug-In . SVG Version: 6.00 Build 0)  -->
<svg version="1.1" id="Layer_1" xmlns="http://www.w3.org/2000/svg" xmlns:xlink="http://www.w3.org/1999/xlink" x="0px" y="0px"
	 viewBox="0 0 44 44" style="enable-background:new 0 0 44 44;" xml:space="preserve">
<style type="text/css">
	.st0{fill: #ffffff;}
</style>
<path class="st0" d="M4.9,27h2.4v-4.6c0.4-0.4,0.7-0.5,1-0.5C8.8,21.9,9,22.1,9,23v4h2.4v-4.6c0.4-0.4,0.7-0.5,1-0.5
	c0.5,0,0.7,0.2,0.7,1.1v4h2.4v-4.3c0-1.7-0.7-2.9-2.2-2.9c-1,0-1.6,0.5-2.2,1.1c-0.4-0.7-1-1.1-1.9-1.1c-1,0-1.5,0.5-2.1,1H7.1
	L6.9,20h-2V27z M16.7,23.5c0,2.3,1.6,3.7,3.6,3.7c0.8,0,1.8-0.3,2.5-0.8l-0.8-1.4c-0.5,0.3-1,0.4-1.4,0.4c-0.8,0-1.4-0.3-1.6-1.2h4
	c0-0.2,0.1-0.5,0.1-1c0-1.9-1-3.4-3.1-3.4C18.4,19.8,16.7,21.2,16.7,23.5z M19,22.7c0.1-0.8,0.6-1.1,1.1-1.1c0.7,0,1,0.5,1,1.1H19z
	 M24.5,27h2.4v-4.6c0.4-0.3,0.6-0.5,1.1-0.5c0.5,0,0.7,0.2,0.7,1.1v4H31v-4.3c0-1.7-0.6-2.9-2.2-2.9c-1,0-1.7,0.5-2.2,1h-0.1
	L26.4,20h-2V27z M32.5,24.3c0,1.7,0.6,2.9,2.2,2.9c1,0,1.6-0.4,2.2-1.1h0.1l0.2,0.9h2v-7h-2.4v4.5c-0.3,0.4-0.6,0.6-1,0.6
	c-0.5,0-0.7-0.2-0.7-1.1v-4h-2.4V24.3z"/>
<g>
	<path class="st0" d="M33.9,13.2H10.1c-1.4,0-2.5-1.1-2.5-2.5s1.1-2.5,2.5-2.5h23.8c1.4,0,2.5,1.1,2.5,2.5S35.3,13.2,33.9,13.2z"/>
</g>
<g>
	<path class="st0" d="M33.9,38.5H10.1c-1.4,0-2.5-1.1-2.5-2.5s1.1-2.5,2.5-2.5h23.8c1.4,0,2.5,1.1,2.5,2.5S35.3,38.5,33.9,38.5z"/>
</g>
</svg>
